<?xml version="1.0" encoding="iso-8859-1"?>
<!-- Generator: Adobe Illustrator 19.0.0, SVG Export Plug-In . SVG Version: 6.00 Build 0)  -->
<svg version="1.1" id="Capa_1" xmlns="http://www.w3.org/2000/svg" xmlns:xlink="http://www.w3.org/1999/xlink" x="0px" y="0px"
	 viewBox="0 0 490 490" style="enable-background:new 0 0 490 490;" xml:space="preserve">
<g>
	<path d="M245,56.61c0,94.659-206.023,239.432-206.023,239.432L0,433.39h245h245l-38.977-137.349
		C451.023,296.042,245,151.269,245,56.61z M196.535,402.765v-58.099c0-16.883,13.743-30.625,30.625-30.625h35.679
		c16.883,0,30.625,13.742,30.625,30.625v58.099H245H196.535z M449.475,402.765H324.09v-58.099c0-33.78-27.47-61.25-61.25-61.25
		H227.16c-33.78,0-61.25,27.47-61.25,61.25v58.099H40.525l25.008-88.126c17.321-12.71,57.1-42.897,97.34-80.418
		c36.203-33.757,63.526-64.63,82.203-92.989c48.904,75.031,142.709,146.965,179.416,173.503L449.475,402.765z"/>
</g>
<g>
</g>
<g>
</g>
<g>
</g>
<g>
</g>
<g>
</g>
<g>
</g>
<g>
</g>
<g>
</g>
<g>
</g>
<g>
</g>
<g>
</g>
<g>
</g>
<g>
</g>
<g>
</g>
<g>
</g>
</svg>
